<svg width="18" height="22" viewBox="0 0 18 22" fill="none" xmlns="http://www.w3.org/2000/svg">
<path d="M8.9999 0.928589C9.82275 0.928515 10.6143 1.24402 11.2115 1.81011C11.8087 2.3762 12.166 3.14976 12.2099 3.97145L12.2142 4.14287H16.9285C17.0913 4.14292 17.2481 4.2048 17.3671 4.31599C17.4862 4.42719 17.5585 4.57942 17.5696 4.74191C17.5807 4.90441 17.5297 5.06507 17.427 5.19142C17.3242 5.31777 17.1773 5.40039 17.0159 5.42259L16.9285 5.42859H16.0208L14.975 18.3312C14.9098 19.1361 14.5439 19.8869 13.9503 20.4344C13.3566 20.9819 12.5786 21.2858 11.771 21.2857H6.22875C5.42119 21.2858 4.6432 20.9819 4.04952 20.4344C3.45585 19.8869 3.09 19.1361 3.02475 18.3312L1.97818 5.42859H1.07132C0.915977 5.42858 0.765888 5.37232 0.648812 5.27022C0.531736 5.16811 0.455594 5.02706 0.434467 4.87316L0.428467 4.78573C0.428473 4.63038 0.484732 4.4803 0.586839 4.36322C0.688945 4.24614 0.829992 4.17 0.983895 4.14887L1.07132 4.14287H5.78561C5.78561 3.29039 6.12426 2.47283 6.72705 1.87003C7.32985 1.26724 8.14741 0.928589 8.9999 0.928589ZM14.7316 5.42859H3.26818L4.30618 18.2274C4.34537 18.7104 4.56493 19.1609 4.92116 19.4893C5.2774 19.8178 5.74421 20.0001 6.22875 20H11.771C12.2556 20.0001 12.7224 19.8178 13.0786 19.4893C13.4349 19.1609 13.6544 18.7104 13.6936 18.2274L14.7308 5.42859H14.7316ZM7.07132 8.64287C7.22667 8.64288 7.37676 8.69914 7.49384 8.80125C7.61091 8.90335 7.68705 9.0444 7.70818 9.1983L7.71418 9.28573V16.1429C7.71413 16.3058 7.65226 16.4625 7.54106 16.5816C7.42987 16.7006 7.27764 16.7729 7.11514 16.784C6.95264 16.7951 6.79199 16.7441 6.66564 16.6414C6.53929 16.5386 6.45667 16.3917 6.43447 16.2303L6.42847 16.1429V9.28573C6.42847 9.11524 6.4962 8.95172 6.61676 8.83116C6.73731 8.7106 6.90083 8.64287 7.07132 8.64287ZM10.9285 8.64287C11.0838 8.64288 11.2339 8.69914 11.351 8.80125C11.4681 8.90335 11.5442 9.0444 11.5653 9.1983L11.5713 9.28573V16.1429C11.5713 16.3058 11.5094 16.4625 11.3982 16.5816C11.287 16.7006 11.1348 16.7729 10.9723 16.784C10.8098 16.7951 10.6491 16.7441 10.5228 16.6414C10.3964 16.5386 10.3138 16.3917 10.2916 16.2303L10.2856 16.1429V9.28573C10.2856 9.11524 10.3533 8.95172 10.4739 8.83116C10.5945 8.7106 10.758 8.64287 10.9285 8.64287ZM8.9999 2.2143C8.51122 2.21424 8.04073 2.3997 7.68354 2.73319C7.32634 3.06668 7.10906 3.52334 7.07561 4.01087L7.07132 4.14287H10.9285L10.9242 4.01087C10.8907 3.52334 10.6735 3.06668 10.3163 2.73319C9.95906 2.3997 9.48857 2.21424 8.9999 2.2143Z" fill="#858585"/>
</svg>
