<svg width="118" height="35" viewBox="0 0 118 35" fill="none" xmlns="http://www.w3.org/2000/svg">
<g clip-path="url(#clip0)">
<path d="M25.8044 12.8163L23.5824 8.37231C23.482 8.17188 23.2775 8.04541 23.0534 8.04541H2.94423C2.71837 8.04541 2.51218 8.17421 2.41285 8.37697C2.41285 8.37697 0.737293 11.8003 0.210516 12.8145C0.0464833 13.1293 -0.0239826 13.4614 0.00720633 13.7762C0.215114 15.904 1.98657 17.5086 4.12708 17.5086C5.00442 17.5086 5.83555 17.236 6.53389 16.7288C7.27899 17.9285 8.60339 18.6915 10.0416 18.6915C11.1673 18.6915 12.2271 18.2363 12.9988 17.4462C13.7704 18.2363 14.8303 18.6915 15.9561 18.6915C17.3942 18.6915 18.7186 17.9285 19.4637 16.7288C20.162 17.236 20.9932 17.5086 21.8705 17.5086C24.0278 17.5086 25.8004 15.8902 25.9939 13.745C26.0216 13.4406 25.9557 13.1195 25.8044 12.8163Z" fill="white"/>
<path d="M3.06198 6.86366H22.9359C23.1281 6.86366 23.3082 6.77014 23.4189 6.6132C23.5292 6.45682 23.5569 6.256 23.4928 6.07479C23.1581 5.13303 22.2653 4.5 21.2717 4.5H4.72619C3.73252 4.5 2.83978 5.13303 2.50512 6.07479C2.44108 6.256 2.46878 6.45682 2.57897 6.6132C2.68976 6.77014 2.86981 6.86366 3.06198 6.86366Z" fill="white"/>
<path d="M23.418 18.6769C23.2801 18.5644 23.0995 18.5199 22.9258 18.5557C21.987 18.7455 21.0065 18.6803 20.0948 18.3554C19.8899 18.2816 19.662 18.3271 19.5004 18.4726C17.8166 19.9914 15.225 20.2487 13.2947 19.1333C13.1112 19.0271 12.8862 19.0271 12.7026 19.1333C10.7718 20.2482 8.17962 19.9902 6.49692 18.4726C6.33416 18.3271 6.10564 18.2821 5.90255 18.3554C4.99137 18.6803 4.01277 18.7455 3.07273 18.5557C2.89961 18.5216 2.71901 18.5649 2.58052 18.6769C2.44319 18.7888 2.36353 18.9573 2.36353 19.1345V28.1175C2.36353 29.4211 3.42356 30.4812 4.72718 30.4812H12.409C12.7356 30.4812 12.9999 30.2169 12.9999 29.8903V22.2273C12.9999 21.9012 13.2647 21.6363 13.5908 21.6363L19.5174 21.6551C19.8435 21.6551 20.1084 21.92 20.1084 22.246V29.9091C20.1084 30.2357 20.3727 30.5 20.6993 30.5L21.2714 30.4813C22.575 30.4813 23.6351 29.4212 23.6351 28.1176V19.1345C23.635 18.9574 23.5554 18.7888 23.418 18.6769ZM10.6362 25.7539C10.6362 26.0803 10.3717 26.3449 10.0453 26.3449H6.49985C6.17351 26.3449 5.90893 26.0803 5.90893 25.7539V22.2085C5.90893 21.8821 6.17351 21.6176 6.49985 21.6176H10.0453C10.3717 21.6176 10.6362 21.8821 10.6362 22.2085V25.7539Z" fill="white"/>
</g>
<path d="M39.38 18.44C38.9533 18.04 38.5467 17.7333 38.16 17.52C37.7733 17.32 37.3 17.22 36.74 17.22C36.1933 17.22 35.76 17.32 35.44 17.52C35.1067 17.7333 34.94 18.0267 34.94 18.4C34.94 18.7867 35.16 19.0933 35.6 19.32C36.0267 19.56 36.5333 19.68 37.12 19.68C37.7067 19.68 38.2267 19.6267 38.68 19.52C38.9467 19.28 39.18 18.92 39.38 18.44ZM42.76 20.46C42.9867 20.54 43.2267 20.5933 43.48 20.62C43.7333 20.6467 44.0667 20.66 44.48 20.66C44.9067 20.66 45.34 20.5467 45.78 20.32C46.22 20.0933 46.5667 19.8267 46.82 19.52C47.0867 19.2267 47.32 18.8933 47.52 18.52C47.7733 18.08 47.96 17.64 48.08 17.2L48.56 17.36C48.2133 18.4933 47.66 19.3933 46.9 20.06C46.1533 20.7267 45.28 21.06 44.28 21.06C43.4933 21.06 42.9467 21 42.64 20.88C42.3467 20.7733 42.1333 20.7 42 20.66C41.8667 20.6333 41.6867 20.5333 41.46 20.36C41.2467 20.2 41.12 20.1067 41.08 20.08C40.9733 20 40.7 19.74 40.26 19.3C39.4067 19.8067 38.4867 20.06 37.5 20.06C36.5133 20.06 35.76 19.9 35.24 19.58C34.72 19.2733 34.46 18.88 34.46 18.4C34.46 17.9333 34.6533 17.5533 35.04 17.26C35.4133 16.98 35.98 16.84 36.74 16.84C37.78 16.84 38.7133 17.2267 39.54 18C39.7 17.5067 39.8333 16.96 39.94 16.36L41.28 8.62C41.6 6.62 42.2933 5.27333 43.36 4.58C44.2933 3.98 45.3533 3.68 46.54 3.68C47.7267 3.68 48.6933 4.02 49.44 4.7C50.2 5.38 50.58 6.45333 50.58 7.92H50.1C50.1 6.73333 49.8133 5.83333 49.24 5.22C48.68 4.59333 47.9667 4.28 47.1 4.28C45.5133 4.28 44.5733 5.26667 44.28 7.24C44.28 7.45333 44.1067 8.55333 43.76 10.54C43.4267 12.5133 43.1267 14.1467 42.86 15.44C42.58 17 41.8333 18.2067 40.62 19.06C41.34 19.78 41.8733 20.1933 42.22 20.3C42.3533 20.34 42.5333 20.3933 42.76 20.46ZM52.527 17.18C51.5004 17.18 50.7204 16.9267 50.187 16.42C49.6537 15.9 49.387 15.2533 49.387 14.48C49.387 13.6933 49.4537 13.0267 49.587 12.48C49.7337 11.92 49.967 11.3867 50.287 10.88C50.607 10.36 51.087 9.95333 51.727 9.66C52.3804 9.36667 53.187 9.22 54.147 9.22C55.1204 9.22 55.8737 9.48 56.407 10C56.9537 10.5067 57.227 11.2067 57.227 12.1C57.227 13.62 56.8204 14.8467 56.007 15.78C55.207 16.7133 54.047 17.18 52.527 17.18ZM51.647 15.12C51.647 16.1867 51.9537 16.72 52.567 16.72C53.1937 16.72 53.747 16.1867 54.227 15.12C54.7204 14.04 54.967 12.76 54.967 11.28C54.967 10.16 54.6604 9.6 54.047 9.6C53.447 9.6 52.8937 10.1133 52.387 11.14C51.8937 12.1533 51.647 13.48 51.647 15.12ZM59.4552 9.4L59.9952 6.44C60.9818 6.44 61.7152 6.4 62.1952 6.32L62.4552 6.26C62.2685 7.19333 62.0618 8.24 61.8352 9.4H64.3152L64.2752 9.76H61.7752C61.1085 13.2 60.7752 15.2733 60.7752 15.98C60.7752 16.4067 61.0018 16.62 61.4552 16.62C61.9085 16.62 62.3218 16.3333 62.6952 15.76C63.0685 15.1867 63.3352 14.5667 63.4952 13.9L63.8552 14.02C63.3618 16.1267 62.3418 17.18 60.7952 17.18C60.1552 17.18 59.6218 17.0067 59.1952 16.66C58.7685 16.3 58.5552 15.8067 58.5552 15.18C58.5552 14.54 58.8285 12.7333 59.3752 9.76H58.3952L58.4352 9.4H59.4552ZM65.9005 9.62C65.5805 9.62 65.2471 9.80667 64.9005 10.18L64.6005 9.94C64.6938 9.75333 64.9005 9.58667 65.2205 9.44C65.5405 9.29333 65.8938 9.22 66.2805 9.22C67.4938 9.22 68.1005 9.76667 68.1005 10.86C68.1005 11.3267 67.9805 12.16 67.7405 13.36C67.5005 14.56 67.3805 15.3467 67.3805 15.72C67.3805 16.2933 67.6538 16.58 68.2005 16.58C68.5871 16.58 68.9605 16.3533 69.3205 15.9C69.6938 15.4467 70.0138 14.82 70.2805 14.02L71.1205 9.4C72.1071 9.4 72.8271 9.36 73.2805 9.28L73.5405 9.22L72.2005 16.78C72.6005 16.74 72.9338 16.5533 73.2005 16.22L73.5005 16.46C73.1005 16.94 72.6005 17.18 72.0005 17.18C71.4005 17.18 70.9338 17.0333 70.6005 16.74C70.2671 16.4467 70.0938 16.0333 70.0805 15.5C69.5205 16.62 68.6938 17.18 67.6005 17.18C66.8138 17.18 66.2005 16.96 65.7605 16.52C65.3205 16.0667 65.1005 15.4467 65.1005 14.66C65.1005 14.2467 65.2271 13.4533 65.4805 12.28C65.7338 11.0933 65.8738 10.2067 65.9005 9.62ZM76.5209 16.66C77.8409 16.66 78.5009 15.6867 78.5009 13.74C78.5009 13.26 78.4276 12.6933 78.2809 12.04C78.1476 11.3867 78.0676 10.98 78.0409 10.82C77.2276 11.66 76.3143 12.1667 75.3009 12.34V11.86C76.2609 11.6467 77.1609 11.1 78.0009 10.22V10.14C78.0009 9.82 78.0476 9.50667 78.1409 9.2C78.2343 8.89333 78.3276 8.66667 78.4209 8.52L78.5609 8.3H79.0409C79.0409 8.88667 79.1343 9.42667 79.3209 9.92C79.5076 10.4 79.7143 10.7933 79.9409 11.1C80.1676 11.3933 80.3743 11.7867 80.5609 12.28C80.7476 12.76 80.8409 13.2933 80.8409 13.88C80.8409 14.8267 80.4809 15.6133 79.7609 16.24C79.0543 16.8667 78.2009 17.18 77.2009 17.18C76.2009 17.18 75.4409 16.9533 74.9209 16.5C74.4143 16.0467 74.1609 15.5267 74.1609 14.94C74.1609 14.34 74.3076 13.9133 74.6009 13.66C74.8943 13.3933 75.2409 13.26 75.6409 13.26C76.0409 13.26 76.3676 13.3933 76.6209 13.66C76.8876 13.9133 77.0209 14.2467 77.0209 14.66C77.0209 15.06 76.8943 15.4 76.6409 15.68C76.3876 15.96 76.0609 16.1 75.6609 16.1C75.4876 16.1 75.3076 16.0733 75.1209 16.02C75.4143 16.4467 75.8809 16.66 76.5209 16.66Z" fill="white"/>
<path d="M39.74 25.3C40.3667 25.3 40.9067 25.44 41.36 25.72C41.82 25.9933 42.1733 26.3833 42.42 26.89C42.6733 27.3967 42.8 28 42.8 28.7C42.8 29.4 42.6733 30.0033 42.42 30.51C42.1733 31.0167 41.82 31.41 41.36 31.69C40.9067 31.9633 40.3667 32.1 39.74 32.1C39.1133 32.1 38.57 31.9633 38.11 31.69C37.6567 31.41 37.3033 31.0167 37.05 30.51C36.8033 30.0033 36.68 29.4 36.68 28.7C36.68 28 36.8033 27.3967 37.05 26.89C37.3033 26.3833 37.6567 25.9933 38.11 25.72C38.57 25.44 39.1133 25.3 39.74 25.3ZM39.74 26.05C39.0533 26.05 38.51 26.2833 38.11 26.75C37.7167 27.2167 37.52 27.8667 37.52 28.7C37.52 29.5267 37.7167 30.1767 38.11 30.65C38.51 31.1167 39.0533 31.35 39.74 31.35C40.4267 31.35 40.9667 31.1167 41.36 30.65C41.76 30.1767 41.96 29.5267 41.96 28.7C41.96 27.8667 41.76 27.2167 41.36 26.75C40.9667 26.2833 40.4267 26.05 39.74 26.05ZM44.3616 32V27H45.0616L45.1116 27.78C45.285 27.4667 45.5216 27.2433 45.8216 27.11C46.1216 26.97 46.445 26.9 46.7916 26.9C47.1516 26.9 47.4783 26.97 47.7716 27.11C48.065 27.2433 48.2983 27.45 48.4716 27.73C48.6516 28.01 48.7416 28.3667 48.7416 28.8V32H47.9416V29.08C47.9416 28.5267 47.8216 28.1433 47.5816 27.93C47.3483 27.71 47.0583 27.6 46.7116 27.6C46.4716 27.6 46.2316 27.6567 45.9916 27.77C45.7516 27.8833 45.5516 28.0667 45.3916 28.32C45.2383 28.5733 45.1616 28.9133 45.1616 29.34V32H44.3616ZM51.313 24.7V30.73C51.313 30.9833 51.3597 31.16 51.453 31.26C51.5464 31.3533 51.6964 31.4 51.903 31.4C52.0364 31.4 52.1464 31.39 52.233 31.37C52.3197 31.35 52.4364 31.3133 52.583 31.26L52.453 31.96C52.233 32.0533 51.9864 32.1 51.713 32.1C50.913 32.1 50.513 31.6533 50.513 30.76V24.7H51.313ZM54.0097 26.04C53.8297 26.04 53.683 25.9867 53.5697 25.88C53.463 25.7667 53.4097 25.62 53.4097 25.44C53.4097 25.26 53.463 25.1167 53.5697 25.01C53.683 24.8967 53.8297 24.84 54.0097 24.84C54.1897 24.84 54.333 24.8967 54.4397 25.01C54.553 25.1167 54.6097 25.26 54.6097 25.44C54.6097 25.62 54.553 25.7667 54.4397 25.88C54.333 25.9867 54.1897 26.04 54.0097 26.04ZM54.4097 27V32H53.6097V27H54.4097ZM56.2659 32V27H56.9659L57.0159 27.78C57.1893 27.4667 57.4259 27.2433 57.7259 27.11C58.0259 26.97 58.3493 26.9 58.6959 26.9C59.0559 26.9 59.3826 26.97 59.6759 27.11C59.9693 27.2433 60.2026 27.45 60.3759 27.73C60.5559 28.01 60.6459 28.3667 60.6459 28.8V32H59.8459V29.08C59.8459 28.5267 59.7259 28.1433 59.4859 27.93C59.2526 27.71 58.9626 27.6 58.6159 27.6C58.3759 27.6 58.1359 27.6567 57.8959 27.77C57.6559 27.8833 57.4559 28.0667 57.2959 28.32C57.1426 28.5733 57.0659 28.9133 57.0659 29.34V32H56.2659ZM64.5473 32.1C64.074 32.1 63.6507 31.9967 63.2773 31.79C62.9107 31.5833 62.624 31.2867 62.4173 30.9C62.2107 30.5067 62.1073 30.04 62.1073 29.5C62.1073 28.96 62.2107 28.4967 62.4173 28.11C62.624 27.7167 62.9073 27.4167 63.2673 27.21C63.6273 27.0033 64.0373 26.9 64.4973 26.9C64.964 26.9 65.3607 27 65.6873 27.2C66.0207 27.4 66.274 27.6733 66.4473 28.02C66.6207 28.36 66.7073 28.7433 66.7073 29.17C66.7073 29.2833 66.704 29.3867 66.6973 29.48C66.6907 29.5733 66.6807 29.6567 66.6673 29.73H62.8973C62.9373 30.2567 63.1007 30.6667 63.3873 30.96C63.674 31.2533 64.054 31.4 64.5273 31.4C64.894 31.4 65.1907 31.33 65.4173 31.19C65.6507 31.05 65.8373 30.86 65.9773 30.62L66.6073 30.99C66.4207 31.33 66.1507 31.6 65.7973 31.8C65.4507 32 65.034 32.1 64.5473 32.1ZM64.4773 27.6C64.0573 27.6 63.7107 27.7267 63.4373 27.98C63.1707 28.2267 63.0007 28.5733 62.9273 29.02H65.9073C65.8873 28.5667 65.7473 28.2167 65.4873 27.97C65.2273 27.7233 64.8907 27.6 64.4773 27.6ZM74.447 32.1C73.8204 32.1 73.277 31.9633 72.817 31.69C72.3637 31.41 72.0104 31.0167 71.757 30.51C71.5104 30.0033 71.387 29.4 71.387 28.7C71.387 28 71.517 27.3967 71.777 26.89C72.0437 26.3833 72.4137 25.9933 72.887 25.72C73.3604 25.44 73.9037 25.3 74.517 25.3C75.1704 25.3 75.7004 25.4233 76.107 25.67C76.5204 25.9167 76.8537 26.2967 77.107 26.81L76.377 27.21C76.2304 26.83 75.997 26.5433 75.677 26.35C75.3637 26.15 74.977 26.05 74.517 26.05C74.0704 26.05 73.6737 26.1567 73.327 26.37C72.987 26.5767 72.717 26.88 72.517 27.28C72.3237 27.6733 72.227 28.1467 72.227 28.7C72.227 29.5267 72.417 30.1767 72.797 30.65C73.1837 31.1167 73.7437 31.35 74.477 31.35C74.8437 31.35 75.1737 31.29 75.467 31.17C75.7604 31.0433 75.9937 30.8533 76.167 30.6C76.3404 30.3467 76.427 30.03 76.427 29.65V29.42H74.327V28.67H77.157V32H76.527L76.497 31.11C76.297 31.43 76.0237 31.6767 75.677 31.85C75.337 32.0167 74.927 32.1 74.447 32.1ZM78.8734 32V27H79.5234L79.6334 27.82C79.9134 27.2067 80.4467 26.9 81.2334 26.9C81.32 26.9 81.4134 26.9067 81.5134 26.92C81.62 26.9333 81.71 26.96 81.7834 27L81.6434 27.73C81.57 27.7033 81.49 27.6833 81.4034 27.67C81.3167 27.6567 81.1934 27.65 81.0334 27.65C80.8267 27.65 80.6167 27.71 80.4034 27.83C80.1967 27.95 80.0234 28.1333 79.8834 28.38C79.7434 28.62 79.6734 28.9267 79.6734 29.3V32H78.8734ZM84.8691 26.9C85.3425 26.9 85.7591 27.0033 86.1191 27.21C86.4858 27.4167 86.7725 27.7167 86.9791 28.11C87.1858 28.4967 87.2891 28.96 87.2891 29.5C87.2891 30.04 87.1858 30.5067 86.9791 30.9C86.7725 31.2867 86.4858 31.5833 86.1191 31.79C85.7591 31.9967 85.3425 32.1 84.8691 32.1C84.4025 32.1 83.9858 31.9967 83.6191 31.79C83.2525 31.5833 82.9658 31.2867 82.7591 30.9C82.5525 30.5067 82.4491 30.04 82.4491 29.5C82.4491 28.96 82.5525 28.4967 82.7591 28.11C82.9658 27.7167 83.2525 27.4167 83.6191 27.21C83.9858 27.0033 84.4025 26.9 84.8691 26.9ZM84.8691 27.59C84.3625 27.59 83.9658 27.76 83.6791 28.1C83.3925 28.44 83.2491 28.9067 83.2491 29.5C83.2491 30.0933 83.3925 30.56 83.6791 30.9C83.9658 31.24 84.3625 31.41 84.8691 31.41C85.3758 31.41 85.7725 31.24 86.0591 30.9C86.3458 30.56 86.4891 30.0933 86.4891 29.5C86.4891 28.9067 86.3458 28.44 86.0591 28.1C85.7725 27.76 85.3758 27.59 84.8691 27.59ZM90.8652 26.9C91.3786 26.9 91.8052 27.02 92.1452 27.26C92.4852 27.4933 92.7486 27.8167 92.9352 28.23L92.1752 28.59C92.0686 28.27 91.9052 28.0267 91.6852 27.86C91.4719 27.6867 91.1919 27.6 90.8452 27.6C90.3452 27.6 89.9519 27.77 89.6652 28.11C89.3852 28.4433 89.2452 28.9067 89.2452 29.5C89.2452 30.0933 89.3852 30.56 89.6652 30.9C89.9519 31.2333 90.3452 31.4 90.8452 31.4C91.2386 31.4 91.5519 31.31 91.7852 31.13C92.0186 30.95 92.1719 30.6967 92.2452 30.37L92.9852 30.63C92.8186 31.09 92.5552 31.45 92.1952 31.71C91.8419 31.97 91.3986 32.1 90.8652 32.1C90.3986 32.1 89.9819 31.9967 89.6152 31.79C89.2486 31.5833 88.9619 31.2867 88.7552 30.9C88.5486 30.5067 88.4452 30.04 88.4452 29.5C88.4452 28.96 88.5486 28.4967 88.7552 28.11C88.9619 27.7167 89.2486 27.4167 89.6152 27.21C89.9819 27.0033 90.3986 26.9 90.8652 26.9ZM96.4809 32.1C96.0076 32.1 95.5843 31.9967 95.2109 31.79C94.8443 31.5833 94.5576 31.2867 94.3509 30.9C94.1443 30.5067 94.0409 30.04 94.0409 29.5C94.0409 28.96 94.1443 28.4967 94.3509 28.11C94.5576 27.7167 94.8409 27.4167 95.2009 27.21C95.5609 27.0033 95.9709 26.9 96.4309 26.9C96.8976 26.9 97.2943 27 97.6209 27.2C97.9543 27.4 98.2076 27.6733 98.3809 28.02C98.5543 28.36 98.6409 28.7433 98.6409 29.17C98.6409 29.2833 98.6376 29.3867 98.6309 29.48C98.6243 29.5733 98.6143 29.6567 98.6009 29.73H94.8309C94.8709 30.2567 95.0343 30.6667 95.3209 30.96C95.6076 31.2533 95.9876 31.4 96.4609 31.4C96.8276 31.4 97.1243 31.33 97.3509 31.19C97.5843 31.05 97.7709 30.86 97.9109 30.62L98.5409 30.99C98.3543 31.33 98.0843 31.6 97.7309 31.8C97.3843 32 96.9676 32.1 96.4809 32.1ZM96.4109 27.6C95.9909 27.6 95.6443 27.7267 95.3709 27.98C95.1043 28.2267 94.9343 28.5733 94.8609 29.02H97.8409C97.8209 28.5667 97.6809 28.2167 97.4209 27.97C97.1609 27.7233 96.8243 27.6 96.4109 27.6ZM100.162 32V27H100.812L100.922 27.82C101.202 27.2067 101.736 26.9 102.522 26.9C102.609 26.9 102.702 26.9067 102.802 26.92C102.909 26.9333 102.999 26.96 103.072 27L102.932 27.73C102.859 27.7033 102.779 27.6833 102.692 27.67C102.606 27.6567 102.482 27.65 102.322 27.65C102.116 27.65 101.906 27.71 101.692 27.83C101.486 27.95 101.312 28.1333 101.172 28.38C101.032 28.62 100.962 28.9267 100.962 29.3V32H100.162ZM104.644 26.04C104.464 26.04 104.318 25.9867 104.204 25.88C104.098 25.7667 104.044 25.62 104.044 25.44C104.044 25.26 104.098 25.1167 104.204 25.01C104.318 24.8967 104.464 24.84 104.644 24.84C104.824 24.84 104.968 24.8967 105.074 25.01C105.188 25.1167 105.244 25.26 105.244 25.44C105.244 25.62 105.188 25.7667 105.074 25.88C104.968 25.9867 104.824 26.04 104.644 26.04ZM105.044 27V32H104.244V27H105.044ZM108.991 32.1C108.517 32.1 108.094 31.9967 107.721 31.79C107.354 31.5833 107.067 31.2867 106.861 30.9C106.654 30.5067 106.551 30.04 106.551 29.5C106.551 28.96 106.654 28.4967 106.861 28.11C107.067 27.7167 107.351 27.4167 107.711 27.21C108.071 27.0033 108.481 26.9 108.941 26.9C109.407 26.9 109.804 27 110.131 27.2C110.464 27.4 110.717 27.6733 110.891 28.02C111.064 28.36 111.151 28.7433 111.151 29.17C111.151 29.2833 111.147 29.3867 111.141 29.48C111.134 29.5733 111.124 29.6567 111.111 29.73H107.341C107.381 30.2567 107.544 30.6667 107.831 30.96C108.117 31.2533 108.497 31.4 108.971 31.4C109.337 31.4 109.634 31.33 109.861 31.19C110.094 31.05 110.281 30.86 110.421 30.62L111.051 30.99C110.864 31.33 110.594 31.6 110.241 31.8C109.894 32 109.477 32.1 108.991 32.1ZM108.921 27.6C108.501 27.6 108.154 27.7267 107.881 27.98C107.614 28.2267 107.444 28.5733 107.371 29.02H110.351C110.331 28.5667 110.191 28.2167 109.931 27.97C109.671 27.7233 109.334 27.6 108.921 27.6ZM114.472 32.1C113.986 32.1 113.536 31.9967 113.122 31.79C112.716 31.5833 112.402 31.29 112.182 30.91L112.862 30.42C113.009 30.7267 113.222 30.9667 113.502 31.14C113.789 31.3133 114.132 31.4 114.532 31.4C114.886 31.4 115.162 31.3333 115.362 31.2C115.562 31.06 115.662 30.88 115.662 30.66C115.662 30.52 115.616 30.3933 115.522 30.28C115.436 30.16 115.266 30.0733 115.012 30.02L113.812 29.77C113.326 29.67 112.976 29.5033 112.762 29.27C112.556 29.0367 112.452 28.7467 112.452 28.4C112.452 28.1267 112.529 27.8767 112.682 27.65C112.842 27.4233 113.066 27.2433 113.352 27.11C113.646 26.97 113.989 26.9 114.382 26.9C114.876 26.9 115.292 26.9967 115.632 27.19C115.972 27.3833 116.226 27.6567 116.392 28.01L115.722 28.45C115.609 28.1567 115.426 27.9433 115.172 27.81C114.919 27.67 114.656 27.6 114.382 27.6C114.022 27.6 113.742 27.6733 113.542 27.82C113.342 27.9667 113.242 28.15 113.242 28.37C113.242 28.5167 113.292 28.6533 113.392 28.78C113.492 28.9 113.679 28.9867 113.952 29.04L115.202 29.3C115.669 29.3933 115.996 29.5467 116.182 29.76C116.369 29.9733 116.462 30.2333 116.462 30.54C116.462 31.0133 116.279 31.3933 115.912 31.68C115.546 31.96 115.066 32.1 114.472 32.1Z" fill="white"/>
<defs>
<clipPath id="clip0">
<rect width="26" height="26" fill="white" transform="translate(0 4.5)"/>
</clipPath>
</defs>
</svg>
