<svg width="24" height="24" viewBox="0 0 24 24" fill="none" xmlns="http://www.w3.org/2000/svg">
<path d="M10 5.33337H16V6.66671H10V5.33337Z" fill="#858585"/>
<path d="M10 8H16V9.33333H10V8Z" fill="#858585"/>
<path d="M10 10.6666H16V12H10V10.6666Z" fill="#858585"/>
<path d="M10 13.3334H16V14.6667H10V13.3334Z" fill="#858585"/>
<path d="M10 16H16V17.3333H10V16Z" fill="#858585"/>
<path d="M7.33325 5.33337H8.66658V6.66671H7.33325V5.33337Z" fill="#858585"/>
<path d="M7.33325 8H8.66658V9.33333H7.33325V8Z" fill="#858585"/>
<path d="M7.33325 10.6666H8.66658V12H7.33325V10.6666Z" fill="#858585"/>
<path d="M7.33325 13.3334H8.66658V14.6667H7.33325V13.3334Z" fill="#858585"/>
<path d="M7.33325 16H8.66658V17.3333H7.33325V16Z" fill="#858585"/>
<path d="M18.6667 1.33337H5.33333C4.97971 1.33337 4.64057 1.47385 4.39052 1.7239C4.14048 1.97395 4 2.31309 4 2.66671V21.3334C4 21.687 4.14048 22.0261 4.39052 22.2762C4.64057 22.5262 4.97971 22.6667 5.33333 22.6667H18.6667C19.0203 22.6667 19.3594 22.5262 19.6095 22.2762C19.8595 22.0261 20 21.687 20 21.3334V2.66671C20 2.31309 19.8595 1.97395 19.6095 1.7239C19.3594 1.47385 19.0203 1.33337 18.6667 1.33337ZM18.6667 21.3334H5.33333V2.66671H18.6667V21.3334Z" fill="#858585"/>
</svg>
