<svg width="20" height="16" viewBox="0 0 20 16" fill="none" xmlns="http://www.w3.org/2000/svg">
<path d="M14.1999 11.6001C14.0407 11.6001 13.8881 11.6633 13.7756 11.7758C13.6631 11.8884 13.5999 12.041 13.5999 12.2001C13.5999 12.3592 13.6631 12.5118 13.7756 12.6244C13.8881 12.7369 14.0407 12.8001 14.1999 12.8001H16.5999C16.759 12.8001 16.9116 12.7369 17.0241 12.6244C17.1366 12.5118 17.1999 12.3592 17.1999 12.2001C17.1999 12.041 17.1366 11.8884 17.0241 11.7758C16.9116 11.6633 16.759 11.6001 16.5999 11.6001H14.1999Z" fill="#858585"/>
<path d="M0.399902 3.80005C0.399902 3.0044 0.715973 2.24134 1.27858 1.67873C1.84119 1.11612 2.60425 0.800049 3.3999 0.800049H16.5999C17.3956 0.800049 18.1586 1.11612 18.7212 1.67873C19.2838 2.24134 19.5999 3.0044 19.5999 3.80005V12.2C19.5999 12.9957 19.2838 13.7588 18.7212 14.3214C18.1586 14.884 17.3956 15.2 16.5999 15.2H3.3999C2.60425 15.2 1.84119 14.884 1.27858 14.3214C0.715973 13.7588 0.399902 12.9957 0.399902 12.2V3.80005ZM1.5999 12.2C1.5999 12.6774 1.78954 13.1353 2.12711 13.4728C2.46468 13.8104 2.92251 14 3.3999 14H16.5999C17.0773 14 17.5351 13.8104 17.8727 13.4728C18.2103 13.1353 18.3999 12.6774 18.3999 12.2V6.80005H1.5999V12.2ZM18.3999 3.80005C18.3999 3.32266 18.2103 2.86482 17.8727 2.52726C17.5351 2.18969 17.0773 2.00005 16.5999 2.00005H3.3999C2.92251 2.00005 2.46468 2.18969 2.12711 2.52726C1.78954 2.86482 1.5999 3.32266 1.5999 3.80005V5.60005H18.3999V3.80005Z" fill="#858585"/>
</svg>
