<svg width="22" height="19" viewBox="0 0 22 19" fill="none" xmlns="http://www.w3.org/2000/svg">
<path fill-rule="evenodd" clip-rule="evenodd" d="M8.25 1C8.25 0.585786 8.58579 0.25 9 0.25H13C13.4641 0.25 13.9092 0.434375 14.2374 0.762563C14.5656 1.09075 14.75 1.53587 14.75 2V3.25H18.323C19.038 3.25 19.6825 3.68512 19.9476 4.35111L20.8856 6.69546C20.8932 6.71264 20.9003 6.73017 20.9066 6.74801L21.5538 8.36547C21.6824 8.68855 21.75 9.03465 21.75 9.385V11V15.333C21.75 15.7971 21.5656 16.2422 21.2374 16.5704C20.9092 16.8986 20.4641 17.083 20 17.083H18.8206C18.7978 17.1596 18.771 17.2351 18.7403 17.3092C18.623 17.5923 18.4511 17.8496 18.2343 18.0663C18.0176 18.2831 17.7603 18.455 17.4772 18.5723C17.194 18.6896 16.8905 18.7499 16.584 18.7499C16.2775 18.7499 15.974 18.6896 15.6909 18.5723C15.4077 18.455 15.1504 18.2831 14.9337 18.0663C14.717 17.8496 14.545 17.5923 14.4278 17.3092C14.4087 17.2633 14.3912 17.2169 14.3752 17.17H7.79303C7.77717 17.2164 7.75983 17.2624 7.74102 17.3079C7.62389 17.591 7.45214 17.8483 7.23558 18.0651C7.01902 18.2818 6.76188 18.4538 6.47886 18.5712C6.19583 18.6886 5.89245 18.7491 5.58605 18.7492C5.27965 18.7493 4.97622 18.6891 4.69309 18.572C4.40996 18.4549 4.15267 18.2831 3.93592 18.0665C3.6801 17.8109 3.48973 17.5021 3.37563 17.166H2C1.53587 17.166 1.09075 16.9816 0.762563 16.6534C0.434375 16.3252 0.25 15.8801 0.25 15.416V12V10C0.25 9.58579 0.585786 9.25 1 9.25C1.41421 9.25 1.75 9.58579 1.75 10V11.25H13.25V4V2C13.25 1.9337 13.2237 1.87011 13.1768 1.82322C13.1299 1.77634 13.0663 1.75 13 1.75H9C8.58579 1.75 8.25 1.41421 8.25 1ZM18.5547 4.9076L19.0918 6.25H17C16.5858 6.25 16.25 6.58579 16.25 7V11C16.25 11.4142 16.5858 11.75 17 11.75H20.25V15.333C20.25 15.3993 20.2237 15.4629 20.1768 15.5098C20.1299 15.5567 20.0663 15.583 20 15.583H18.7642C18.7565 15.5629 18.7485 15.5428 18.7403 15.5229C18.623 15.2397 18.4511 14.9824 18.2343 14.7657C18.0176 14.549 17.7603 14.377 17.4772 14.2598C17.194 14.1425 16.8905 14.0821 16.584 14.0821C16.2775 14.0821 15.974 14.1425 15.6909 14.2598C15.4077 14.377 15.1504 14.549 14.9337 14.7657C14.717 14.9824 14.545 15.2397 14.4278 15.5229C14.4077 15.5713 14.3893 15.6204 14.3725 15.67H7.79575C7.77894 15.6202 7.76042 15.5708 7.74022 15.5221C7.62284 15.2391 7.45086 14.982 7.23411 14.7654L7.23325 14.7646C6.79557 14.3277 6.20237 14.0825 5.58397 14.0828C4.96516 14.083 4.37181 14.3291 3.93445 14.7669C3.67934 15.0222 3.48949 15.3306 3.37562 15.666H2C1.9337 15.666 1.87011 15.6397 1.82322 15.5928C1.77634 15.5459 1.75 15.4823 1.75 15.416V12.75H14C14.4142 12.75 14.75 12.4142 14.75 12V4.75H18.323C18.4257 4.75 18.5169 4.81248 18.554 4.90596L18.5547 4.9076ZM20.25 9.385V10.25H17.75V7.75H19.6919L20.1604 8.921C20.2196 9.06978 20.25 9.22752 20.25 9.385ZM16.2649 15.6456C16.3661 15.6037 16.4745 15.5821 16.584 15.5821C16.6935 15.5821 16.802 15.6037 16.9031 15.6456C17.0043 15.6875 17.0962 15.7489 17.1737 15.8263L17.1737 15.8264C17.2511 15.9038 17.3125 15.9957 17.3545 16.0969C17.3964 16.1981 17.4179 16.3065 17.4179 16.416C17.4179 16.5255 17.3964 16.634 17.3545 16.7351C17.3125 16.8363 17.2511 16.9282 17.1737 17.0057C17.0962 17.0831 17.0043 17.1445 16.9031 17.1865C16.802 17.2284 16.6935 17.2499 16.584 17.2499C16.4745 17.2499 16.3661 17.2284 16.2649 17.1865C16.1637 17.1445 16.0718 17.0831 15.9943 17.0057C15.9169 16.9282 15.8555 16.8363 15.8136 16.7351C15.7717 16.634 15.7501 16.5255 15.7501 16.416C15.7501 16.3065 15.7717 16.1981 15.8136 16.0969C15.8555 15.9957 15.9169 15.9038 15.9943 15.8263C16.0718 15.7489 16.1637 15.6875 16.2649 15.6456ZM5.58464 15.5828C5.80562 15.5827 6.01759 15.6704 6.17392 15.8265C6.25132 15.9039 6.31274 15.9957 6.35466 16.0968C6.39658 16.1978 6.41818 16.3062 6.41822 16.4156C6.41827 16.525 6.39677 16.6334 6.35494 16.7345C6.31312 16.8356 6.25178 16.9275 6.17445 17.0049C6.09711 17.0823 6.00528 17.1437 5.90421 17.1856C5.80314 17.2275 5.69481 17.2491 5.58538 17.2492C5.47597 17.2492 5.36761 17.2277 5.2665 17.1859C5.16539 17.1441 5.07351 17.0827 4.99611 17.0054C4.83978 16.8492 4.7519 16.6373 4.7518 16.4163C4.7517 16.1954 4.83939 15.9834 4.99558 15.8271C5.15177 15.6707 5.36366 15.5829 5.58464 15.5828ZM1 0.25C0.585786 0.25 0.25 0.585786 0.25 1C0.25 1.41421 0.585786 1.75 1 1.75H6C6.41421 1.75 6.75 1.41421 6.75 1C6.75 0.585786 6.41421 0.25 6 0.25H1ZM0.25 4C0.25 3.58579 0.585786 3.25 1 3.25H4C4.41421 3.25 4.75 3.58579 4.75 4C4.75 4.41421 4.41421 4.75 4 4.75H1C0.585786 4.75 0.25 4.41421 0.25 4ZM1 6.25C0.585786 6.25 0.25 6.58579 0.25 7C0.25 7.41421 0.585786 7.75 1 7.75H2C2.41421 7.75 2.75 7.41421 2.75 7C2.75 6.58579 2.41421 6.25 2 6.25H1Z" fill="#858585"/>
</svg>
